# xmcd
#
# Track frame offsets:
#	150
#	11610
#	25059
#	35430
#	51214
#	63590
#	75884
#	86655
#	96676
#	116332
#	129324
#	140727
#	151725
#	161379
#	172641
#	185610
#	199011
#	213628
#
# Disc length: 3035 seconds
#
# Revision: 0
# Processed by: cddbd v1.5.2PL0 Copyright (c) Steve Scherf et al.
# Submitted via: EZCDAudioConverter 9.0.4.1
#
DISCID=e60bd912
DTITLE=Various Artist - '70s Country: Southern Nights [CD2]
DYEAR=2018
DGENRE=Country
TTITLE0=Crystal Gayle - Don't It Make My Brown Eyes Blue
TTITLE1=Glen Campbell - Southern Nights
TTITLE2=Barbara Mandrell - Sleeping Single In A Double Bed
TTITLE3=Kenny Rodgers - The Gambler
TTITLE4=Tom T. Hall - The Year That Clayton Delaney Died
TTITLE5=Freddy Fender - Wasted Days And Wasted Nights
TTITLE6=The Kendalls - Heaven's Just A Sin Away
TTITLE7=The Statler Brothers - Do You Know You Are My Sunshine
TTITLE8=Kenny Rodgers - Coward Of The County
TTITLE9=Conway Twitty - Happy Birthday Darlin'
TTITLE10=Loretta Lynn - Love Is The Foundation
TTITLE11=Joe Stampley - Soul Song
TTITLE12=Mel Tillis and the Statesiders - I Ain't Never
TTITLE13=Donna Fargo - The Happiest Girl In The Whole U.S.A.
TTITLE14=The Statler Brothers - Do You Remember These
TTITLE15=Conway Twitty - There's A Honky Tonk Angel (Who'll Take Me Back In)
TTITLE16=Olivia Newton-John - If You Love Me (Let Me Know)
TTITLE17=Don Williams - Tulsa Time
EXTD=
EXTT0=
EXTT1=
EXTT2=
EXTT3=
EXTT4=
EXTT5=
EXTT6=
EXTT7=
EXTT8=
EXTT9=
EXTT10=
EXTT11=
EXTT12=
EXTT13=
EXTT14=
EXTT15=
EXTT16=
EXTT17=
PLAYORDER=
